PathFileType	4	(X/Y/Z)	Patient4_TMGait_0pt5_02_left_40.trc.trc
DataRate	CameraRate	NumFrames	NumMarkers	Units	OrigDataRate	OrigDataStartFrame	OrigNumFrames
75.675675675676	75.675675675676	4	33	mm	75.675675675676	36	       141
Frame#	Time	Sacral			L.Shoulder			Chest			R.Shoulder			Neck			R.ASIS			L.ASIS			R.Thigh.Superior			R.Thigh.Lateral			R.Thigh.Inferior			R.Patella			L.Thigh.Superior			L.Thigh.Lateral			L.Thigh.Inferior			L.Patella			L.Shank.Superior			L.Shank.Lateral			L.Shank.Inferior			R.Shank.Superior			R.Shank.Lateral			R.Shank.Inferior			R.Heel			R.Midfoot.Superior			R.Midfoot.Lateral			R.Toe			L.Heel			L.Midfoot.Lateral			L.Midfoot.Superior			L.Toe			L.Elbow			L.Wrist			R.Elbow			R.Wrist			
		X1	Y1	Z1	X2	Y2	Z2	X3	Y3	Z3	X4	Y4	Z4	X5	Y5	Z5	X6	Y6	Z6	X7	Y7	Z7	X8	Y8	Z8	X9	Y9	Z9	X10	Y10	Z10	X11	Y11	Z11	X12	Y12	Z12	X13	Y13	Z13	X14	Y14	Z14	X15	Y15	Z15	X16	Y16	Z16	X17	Y17	Z17	X18	Y18	Z18	X19	Y19	Z19	X20	Y20	Z20	X21	Y21	Z21	X22	Y22	Z22	X23	Y23	Z23	X24	Y24	Z24	X25	Y25	Z25	X26	Y26	Z26	X27	Y27	Z27	X28	Y28	Z28	X29	Y29	Z29	X30	Y30	Z30	X31	Y31	Z31	X32	Y32	Z32	X33	Y33	Z33	

36	52.022500000000	735.666057258446	1005.002217550000	477.276118120962	889.000794721107	1426.556224502147	276.413921887267	1010.404662317618	1359.015220713412	424.443804046874	948.247398786945	1437.460654779758	605.218365716340	907.579683393712	1490.064902128244	424.758084773888	965.894723217354	935.273771123035	576.852220544831	937.441345973382	955.683452540854	304.121408337662	977.986648553763	722.536024311454	553.732432682906	885.184971251433	623.484479709855	619.103383522608	951.514827488251	557.910309713910	540.428107356871	935.794931278563	456.592043261915	554.205561789549	1011.877236146718	765.025303989310	343.341656429317	946.615474490288	637.087378769904	280.057542441655	1042.107646159029	571.859625952331	344.787927068652	1053.750348792575	499.481269715170	352.550586518961	1029.103973531342	425.129161437290	343.663188262138	946.620908667195	307.088236493494	290.519801764655	1003.252315313826	197.283107462743	358.777724442444	870.761716516072	384.179961672528	561.967672974675	765.068608171950	319.297878719303	627.771415178248	763.203519233854	214.040455156585	570.933943597813	574.968825060486	99.240999307458	550.997886459264	754.600701576942	105.014297340907	582.981857297426	654.408375323853	67.452334064465	622.936704064410	855.121033094233	36.106139185827	608.506413482317	881.570577676537	38.672884638488	396.728777135583	956.362037239286	36.330604428689	316.727516698821	1038.711495031833	97.647421159405	344.216038533595	1167.716983667083	45.210153224867	316.907506542307	779.892941938567	1082.992986448694	187.289524089075	770.022206348365	823.272084372743	202.931762722321	1100.200413949734	1134.117989630952	710.054746475964	1312.934127794933	1224.688359480563	613.859478451032	
37	52.035714285714	735.500468651957	1005.921475400591	473.660497364241	890.188607424367	1427.711412256739	273.798753468207	1010.512537507705	1360.073650902098	422.651735463289	947.202793649374	1438.616818749083	602.913785586961	907.576085797858	1491.159367801372	422.248317838287	965.258839237449	936.344362221643	574.593959501483	938.294225754189	956.845175251132	301.795058201735	981.160878176825	724.372915538791	552.162021760240	890.219584687417	624.042896655751	617.451590081580	958.862833720630	559.034477362026	539.721139162483	944.123184302787	456.315582286059	554.899635570875	1011.311679078631	764.461811458791	340.536845786501	944.212732548474	637.043030156247	278.407363684230	1038.919505876007	571.046832597645	343.370847005768	1049.818936253482	498.855030413458	351.633809554189	1024.724084166928	424.678255665371	342.782564082827	941.711134686978	306.951767057549	289.912678549548	997.619969035007	197.096082036942	358.573180143074	876.816232787479	384.873593207857	562.203787505951	768.488561903504	323.602266504671	627.002987710675	764.658676649025	217.757240602133	571.311822912305	573.222144755139	109.755604396082	550.863221950290	752.561346917164	106.534287839651	582.991863726617	650.810880414490	74.010972717433	622.827069292821	848.898652537292	35.651048935958	608.375113820000	875.068523790576	38.711615513139	396.727270077098	949.825651979343	36.347647313590	316.705134420189	1032.286726773932	97.610792985902	344.175987270536	1161.272313046729	44.818014721843	316.784645037626	784.934071420454	1082.893264283618	183.230752018513	782.210806495913	822.875752839543	198.417946851147	1094.704433517495	1132.018687615620	707.402276735986	1312.636126601921	1211.066743719028	611.781602800902	
38	52.048928571429	735.145448820754	1006.715108028173	470.034784724803	891.409678985617	1428.788498671608	271.253599794315	1010.528084776014	1361.021102884663	421.015216959688	945.931305224062	1439.598426605030	600.741988057660	907.449867003577	1492.142210445566	419.833467691078	964.493084077707	937.295730912311	572.401978581391	939.005399514020	957.866961977378	299.535564013670	984.638060799901	726.344138368418	550.561212421733	895.832578945484	624.634193352434	615.894392093875	966.810180971592	560.350144061531	539.029893936863	953.105407470373	456.299154845509	555.522905982647	1010.485692664461	763.751066665847	337.825262067263	941.670284049930	636.973962087398	276.678181131866	1035.509978142201	570.215143714178	341.965324654193	1045.627882280457	498.186122850050	350.620555410077	1020.126916777952	424.181386895975	341.805748387559	936.602529245479	306.731883175410	289.240927502081	991.868357759696	196.865268543272	358.323548753199	883.640045545919	385.775645629026	562.432638704182	772.767097549495	328.239721838852	626.202730258864	766.908844962538	221.868031681532	571.659678173273	572.506733189202	121.317026838673	550.597423325519	750.968428885412	108.348204828522	582.840841750445	647.824094099422	81.463164135078	622.627096231813	842.665776740325	35.046939172049	608.271842561237	868.480800091245	38.733521470943	396.729013099671	943.211207542959	36.325655685794	316.687491200083	1025.802590249592	97.507804723333	344.148924509597	1154.762319999626	44.342046227387	316.699322690270	790.137749411086	1082.845150195960	178.889917427275	795.308626090674	822.698723411386	193.679713980819	1088.668452553914	1129.726145007826	704.986996799046	1311.655815791953	1196.090472990687	610.148407700658	
39	52.062142857143	734.613836483394	1007.354765051122	466.448182385416	892.606104453556	1429.757388800744	268.808877752759	1010.439843904455	1361.824247505713	419.527475357482	944.470941796341	1440.365112326762	598.723215806889	907.218019158875	1492.990910741215	417.537594141460	963.596843647114	938.110281943974	570.259506622605	939.549337042737	958.730602215411	297.327559625443	988.350350560278	728.465003985039	548.889789484240	901.959616989326	625.300820519985	614.416122750963	975.239884050477	561.907836468609	538.302863299167	962.659309270105	456.593913555604	555.991496698505	1009.435423954063	762.954191437039	335.249523333439	939.065447057197	636.894925105323	274.882667054856	1031.969453045569	569.387853873753	340.569690501348	1041.282567869127	497.490004058977	349.522644508706	1015.411712928905	423.644349413145	340.749615870015	931.384657524784	306.451923478186	288.500949707203	986.046378801276	196.595979495903	358.031216182532	891.165499297484	386.924110538749	562.578804657943	777.891207964491	333.193673168047	625.355294998007	769.936221893049	226.379469475412	571.932272038381	572.913054893993	133.880589556697	550.164547335931	749.849507015929	110.567802099117	582.551578115413	645.522638318201	89.833469576863	622.302512291965	836.448713224951	34.268245076849	608.213615622110	861.836314567119	38.740661289950	396.721543135705	936.547566283025	36.276952855490	316.663562005656	1019.274977407221	97.362763231047	344.126032017976	1148.206270420222	43.833012579558	316.639908635876	795.547957954538	1082.798907738628	174.306381534654	809.262076936219	822.755666963994	188.731015341335	1082.099600990000	1127.189078095259	702.809679966802	1309.811034357112	1179.835974021842	609.042398604435	
